<svg xmlns="http://www.w3.org/2000/svg" xmlns:xlink="http://www.w3.org/1999/xlink" width="3780" zoomAndPan="magnify" viewBox="0 0 2835 1417.499962" height="1890" preserveAspectRatio="xMidYMid meet" version="1.0"><defs><g/><clipPath id="d4e7d6663a"><path d="M 120.796875 378.847656 L 779.8125 378.847656 L 779.8125 1037.863281 L 120.796875 1037.863281 Z M 120.796875 378.847656 " clip-rule="nonzero"/></clipPath></defs><path fill="#4fad5b" d="M 578.035156 623.566406 C 577.335938 608.027344 568.9375 600.464844 562.078125 596.828125 C 554.65625 592.90625 547.375 592.625 547.097656 592.625 L 545.417969 592.625 L 545.417969 594.308594 C 545.417969 594.585938 545.695312 601.867188 549.617188 609.285156 C 553.257812 616.285156 560.816406 624.6875 576.355469 625.246094 L 578.035156 625.246094 Z M 578.035156 623.566406 " fill-opacity="1" fill-rule="nonzero"/><path fill="#4fad5b" d="M 604.078125 596.828125 C 597.078125 600.464844 588.675781 608.027344 588.117188 623.566406 L 588.117188 625.246094 L 589.796875 625.246094 C 605.335938 624.546875 612.898438 616.148438 616.539062 609.285156 C 620.457031 601.867188 620.738281 594.585938 620.738281 594.308594 L 620.738281 592.625 L 619.058594 592.625 C 618.777344 592.765625 611.496094 593.046875 604.078125 596.828125 Z M 604.078125 596.828125 " fill-opacity="1" fill-rule="nonzero"/><path fill="#4fad5b" d="M 607.855469 641.066406 C 600.4375 643.726562 591.058594 650.027344 588.398438 665.285156 L 588.117188 666.96875 L 589.796875 667.105469 C 605.195312 668.648438 613.878906 661.367188 618.496094 654.925781 C 623.398438 648.066406 624.65625 641.066406 624.65625 640.648438 L 624.9375 638.96875 L 623.257812 638.828125 C 622.976562 639.105469 615.835938 638.265625 607.855469 641.066406 Z M 607.855469 641.066406 " fill-opacity="1" fill-rule="nonzero"/><path fill="#4fad5b" d="M 558.296875 641.066406 C 550.457031 638.265625 543.175781 638.96875 542.898438 638.96875 L 541.21875 639.105469 L 541.496094 640.785156 C 541.496094 641.066406 542.757812 648.207031 547.65625 655.066406 C 552.277344 661.367188 560.957031 668.648438 576.355469 667.246094 L 578.035156 667.105469 L 577.757812 665.425781 C 575.097656 650.167969 565.71875 643.726562 558.296875 641.066406 Z M 558.296875 641.066406 " fill-opacity="1" fill-rule="nonzero"/><path fill="#4fad5b" d="M 269.753906 696.789062 C 269.476562 688.945312 265.277344 685.167969 261.777344 683.347656 C 257.996094 681.386719 254.355469 681.246094 254.214844 681.246094 L 253.375 681.246094 L 253.375 682.085938 C 253.375 682.226562 253.515625 685.867188 255.476562 689.648438 C 257.296875 693.148438 261.074219 697.347656 268.914062 697.628906 L 269.753906 697.628906 Z M 269.753906 696.789062 " fill-opacity="1" fill-rule="nonzero"/><path fill="#4fad5b" d="M 282.914062 683.347656 C 279.414062 685.167969 275.214844 688.945312 274.9375 696.789062 L 274.9375 697.628906 L 275.777344 697.628906 C 283.617188 697.347656 287.394531 693.148438 289.214844 689.648438 C 291.175781 685.867188 291.316406 682.226562 291.316406 682.085938 L 291.316406 681.246094 L 290.476562 681.246094 C 290.335938 681.246094 286.695312 681.386719 282.914062 683.347656 Z M 282.914062 683.347656 " fill-opacity="1" fill-rule="nonzero"/><path fill="#4fad5b" d="M 284.875 705.605469 C 281.234375 706.867188 276.476562 710.085938 275.074219 717.789062 L 274.9375 718.628906 L 275.777344 718.765625 C 283.617188 719.46875 287.957031 715.828125 290.195312 712.605469 C 292.714844 709.105469 293.277344 705.605469 293.277344 705.46875 L 293.414062 704.628906 L 292.574219 704.488281 C 292.4375 704.628906 288.796875 704.207031 284.875 705.605469 Z M 284.875 705.605469 " fill-opacity="1" fill-rule="nonzero"/><path fill="#4fad5b" d="M 259.957031 705.605469 C 256.035156 704.207031 252.394531 704.628906 252.253906 704.628906 L 251.414062 704.765625 L 251.554688 705.605469 C 251.554688 705.746094 252.253906 709.386719 254.636719 712.746094 C 256.875 715.96875 261.355469 719.605469 269.054688 718.90625 L 269.894531 718.765625 L 269.753906 717.925781 C 268.355469 710.085938 263.59375 707.007812 259.957031 705.605469 Z M 259.957031 705.605469 " fill-opacity="1" fill-rule="nonzero"/><path fill="#4fad5b" d="M 442.375 595.847656 C 441.394531 571.347656 428.097656 559.445312 417.175781 553.707031 C 405.417969 547.546875 394.074219 547.125 393.65625 547.125 L 391.136719 546.988281 L 391.277344 549.507812 C 391.277344 549.925781 391.695312 561.265625 397.855469 573.027344 C 403.597656 583.945312 415.496094 597.246094 439.996094 598.226562 L 442.65625 598.367188 Z M 442.375 595.847656 " fill-opacity="1" fill-rule="nonzero"/><path fill="#4fad5b" d="M 483.535156 553.707031 C 472.617188 559.445312 459.316406 571.347656 458.335938 595.847656 L 458.195312 598.507812 L 460.855469 598.367188 C 485.355469 597.386719 497.257812 584.085938 502.996094 573.167969 C 509.15625 561.40625 509.578125 550.066406 509.578125 549.648438 L 509.714844 547.125 L 507.195312 547.265625 C 506.636719 547.125 495.296875 547.546875 483.535156 553.707031 Z M 483.535156 553.707031 " fill-opacity="1" fill-rule="nonzero"/><path fill="#4fad5b" d="M 489.417969 623.425781 C 477.796875 627.625 462.957031 637.566406 458.617188 661.648438 L 458.195312 664.308594 L 460.855469 664.585938 C 485.214844 666.96875 498.9375 655.488281 506.078125 645.546875 C 513.777344 634.765625 515.738281 623.566406 515.875 623.148438 L 516.296875 620.625 L 513.777344 620.347656 C 513.214844 620.207031 501.875 618.945312 489.417969 623.425781 Z M 489.417969 623.425781 " fill-opacity="1" fill-rule="nonzero"/><path fill="#4fad5b" d="M 411.296875 623.425781 C 398.835938 618.945312 387.496094 620.207031 387.074219 620.207031 L 384.554688 620.488281 L 384.976562 623.007812 C 385.117188 623.425781 386.9375 634.625 394.777344 645.40625 C 401.917969 655.488281 415.636719 666.96875 439.996094 664.445312 L 442.65625 664.167969 L 442.238281 661.507812 C 437.617188 637.566406 422.917969 627.625 411.296875 623.425781 Z M 411.296875 623.425781 " fill-opacity="1" fill-rule="nonzero"/><path fill="#4fad5b" d="M 350.257812 690.207031 C 349.554688 674.386719 341.015625 666.546875 333.875 662.90625 C 326.316406 658.988281 318.894531 658.707031 318.617188 658.707031 L 316.9375 658.707031 L 316.9375 660.386719 C 316.9375 660.667969 317.214844 668.085938 321.136719 675.648438 C 324.777344 682.789062 332.617188 691.328125 348.4375 692.027344 L 350.117188 692.167969 Z M 350.257812 690.207031 " fill-opacity="1" fill-rule="nonzero"/><path fill="#4fad5b" d="M 376.855469 662.90625 C 369.714844 666.546875 361.175781 674.386719 360.476562 690.207031 L 360.335938 691.886719 L 362.015625 691.746094 C 377.835938 691.046875 385.675781 682.507812 389.316406 675.367188 C 393.234375 667.808594 393.515625 660.386719 393.515625 660.105469 L 393.515625 658.425781 L 391.835938 658.425781 C 391.835938 658.707031 384.554688 658.847656 376.855469 662.90625 Z M 376.855469 662.90625 " fill-opacity="1" fill-rule="nonzero"/><path fill="#4fad5b" d="M 380.777344 708.128906 C 373.214844 710.789062 363.695312 717.367188 360.894531 732.90625 L 360.617188 734.585938 L 362.296875 734.726562 C 378.117188 736.265625 386.9375 728.847656 391.554688 722.40625 C 396.597656 715.40625 397.855469 708.128906 397.855469 707.847656 L 398.136719 706.167969 L 396.457031 706.027344 C 396.175781 705.886719 388.894531 705.1875 380.777344 708.128906 Z M 380.777344 708.128906 " fill-opacity="1" fill-rule="nonzero"/><path fill="#4fad5b" d="M 330.097656 708.128906 C 321.976562 705.1875 314.695312 706.027344 314.414062 706.027344 L 312.734375 706.167969 L 313.015625 707.847656 C 313.015625 708.128906 314.277344 715.40625 319.316406 722.40625 C 323.9375 728.847656 332.894531 736.265625 348.574219 734.726562 L 350.257812 734.585938 L 349.976562 732.90625 C 347.175781 717.226562 337.65625 710.789062 330.097656 708.128906 Z M 330.097656 708.128906 " fill-opacity="1" fill-rule="nonzero"/><g clip-path="url(#d4e7d6663a)"><path fill="#4fad5b" d="M 779.917969 708.40625 C 779.917969 728.289062 778.097656 747.605469 774.738281 767.207031 L 754.019531 767.207031 C 726.996094 767.207031 702.777344 783.449219 692.558594 808.367188 C 692.417969 808.648438 692.277344 808.648438 692.277344 808.925781 C 681.917969 833.988281 687.378906 862.6875 706.417969 881.867188 L 720.976562 896.429688 C 698.578125 928.628906 670.578125 956.628906 638.378906 979.027344 L 623.816406 964.46875 C 604.636719 945.289062 575.9375 939.828125 550.875 950.328125 C 550.597656 950.46875 550.457031 950.609375 550.175781 950.609375 C 525.257812 960.96875 509.015625 985.1875 509.015625 1012.070312 L 509.015625 1032.789062 C 489.417969 1036.148438 470.097656 1037.96875 450.214844 1037.96875 C 430.335938 1037.96875 411.015625 1036.148438 391.417969 1032.789062 L 391.417969 1012.070312 C 391.417969 985.046875 375.175781 960.828125 350.257812 950.609375 C 349.976562 950.46875 349.976562 950.328125 349.695312 950.328125 C 324.636719 939.96875 295.9375 945.429688 276.753906 964.46875 L 262.195312 979.027344 C 229.996094 956.628906 201.996094 928.628906 179.59375 896.429688 L 194.15625 881.867188 C 213.335938 862.6875 218.796875 833.988281 208.296875 808.925781 C 208.15625 808.648438 208.015625 808.507812 208.015625 808.226562 C 197.65625 783.308594 173.433594 767.066406 146.554688 767.066406 L 125.976562 767.066406 C 122.613281 747.46875 120.796875 728.148438 120.796875 708.265625 C 120.796875 688.386719 122.613281 669.066406 125.976562 649.46875 L 146.695312 649.46875 C 173.714844 649.46875 197.933594 633.226562 208.15625 608.308594 C 208.296875 608.027344 208.433594 608.027344 208.433594 607.746094 C 218.796875 582.6875 213.335938 553.988281 194.296875 534.804688 L 179.734375 520.246094 C 202.136719 488.046875 230.136719 460.046875 262.335938 437.644531 L 276.894531 452.207031 C 296.074219 471.386719 324.777344 476.847656 349.835938 466.347656 C 350.117188 466.207031 350.257812 466.066406 350.535156 466.066406 C 375.457031 455.707031 391.695312 431.484375 391.695312 404.605469 L 391.695312 384.027344 C 411.296875 380.664062 430.617188 378.847656 450.496094 378.847656 C 470.375 378.847656 489.695312 380.664062 509.296875 384.027344 L 509.296875 404.746094 C 509.296875 431.765625 525.535156 455.984375 550.457031 466.207031 C 550.738281 466.347656 550.738281 466.484375 551.015625 466.484375 C 576.078125 476.847656 604.777344 471.386719 623.957031 452.347656 L 638.515625 437.785156 C 670.71875 460.1875 698.71875 488.1875 721.117188 520.386719 L 706.558594 534.945312 C 687.378906 554.125 681.917969 582.828125 692.417969 607.886719 C 692.558594 608.167969 692.699219 608.308594 692.699219 608.585938 C 703.058594 633.507812 727.277344 649.746094 754.15625 649.746094 L 774.878906 649.746094 C 778.238281 669.207031 779.917969 688.527344 779.917969 708.40625 Z M 351.65625 867.308594 C 324.214844 845.046875 288.9375 832.167969 250.996094 833.148438 C 273.535156 869.128906 305.597656 898.667969 343.675781 917.988281 C 344.515625 900.628906 347.316406 883.546875 351.65625 867.308594 Z M 376.296875 807.527344 C 338.777344 782.046875 292.855469 768.046875 243.996094 770.566406 C 237.277344 770.988281 230.554688 771.546875 224.117188 772.527344 C 227.054688 782.886719 230.695312 793.109375 235.035156 802.90625 C 238.535156 802.488281 242.035156 802.207031 245.675781 802.066406 C 288.9375 799.828125 329.535156 812.707031 362.296875 836.085938 C 366.355469 826.148438 371.117188 816.628906 376.296875 807.527344 Z M 635.855469 852.886719 C 622.558594 845.1875 607.015625 840.707031 590.496094 840.707031 C 540.65625 840.707031 500.195312 881.167969 500.195312 931.007812 C 500.195312 933.386719 500.335938 935.769531 500.476562 938.148438 C 555.078125 926.386719 602.675781 895.589844 635.855469 852.886719 Z M 667.636719 798.707031 C 644.957031 785.546875 618.636719 777.988281 590.636719 777.988281 C 506.078125 777.988281 437.476562 846.585938 437.476562 931.148438 C 437.476562 935.207031 437.617188 939.269531 437.894531 943.328125 C 441.957031 943.609375 446.15625 943.609375 450.355469 943.609375 C 456.796875 943.609375 463.097656 943.328125 469.398438 942.910156 C 468.976562 938.988281 468.835938 935.066406 468.835938 931.148438 C 468.835938 863.949219 523.296875 809.347656 590.636719 809.347656 C 613.738281 809.347656 635.296875 815.789062 653.636719 826.847656 C 658.816406 817.886719 663.578125 808.507812 667.636719 798.707031 Z M 683.878906 736.40625 C 655.597656 722.828125 623.957031 715.265625 590.496094 715.265625 C 471.214844 715.265625 374.617188 811.867188 374.617188 931.148438 C 384.417969 934.648438 395.335938 937.449219 406.257812 939.546875 C 406.117188 936.75 405.976562 933.949219 405.976562 931.148438 C 405.976562 829.367188 488.578125 746.765625 590.355469 746.765625 C 621.855469 746.765625 651.539062 754.746094 677.578125 768.609375 C 680.515625 758.109375 682.617188 747.328125 683.878906 736.40625 Z M 685.417969 702.667969 C 682.335938 575.40625 578.316406 473.207031 450.355469 473.207031 C 320.4375 473.207031 215.15625 578.488281 215.15625 708.40625 C 215.15625 719.746094 215.996094 730.949219 217.535156 741.867188 C 225.65625 740.609375 233.914062 739.765625 242.316406 739.347656 C 298.175781 736.40625 350.675781 752.367188 393.796875 781.488281 C 439.015625 722.265625 510.277344 683.90625 590.636719 683.90625 C 624.238281 683.90625 656.296875 690.488281 685.417969 702.667969 Z M 685.417969 702.667969 " fill-opacity="1" fill-rule="nonzero"/></g><path fill="#4fad5b" d="M 270.457031 728.566406 C 271.714844 728.707031 272.976562 728.707031 274.234375 728.847656 L 273.253906 686.289062 C 278.15625 680.6875 277.875 675.085938 276.617188 671.445312 C 275.355469 667.527344 272.976562 664.867188 272.835938 664.726562 L 272.277344 664.167969 L 271.714844 664.726562 C 271.574219 664.867188 269.195312 667.386719 267.9375 671.445312 C 266.816406 675.085938 266.394531 680.6875 271.296875 686.289062 Z M 270.457031 728.566406 " fill-opacity="1" fill-rule="nonzero"/><path fill="#4fad5b" d="M 579.71875 673.265625 C 581.957031 673.128906 584.335938 673.128906 586.578125 673.128906 L 585.035156 602.566406 C 594.835938 591.367188 594.136719 580.445312 591.757812 573.167969 C 589.238281 565.1875 584.335938 560.007812 584.195312 559.867188 L 583.078125 558.746094 L 581.957031 559.867188 C 581.816406 560.148438 576.917969 565.328125 574.398438 573.167969 C 572.015625 580.445312 571.457031 591.507812 581.117188 602.566406 Z M 579.71875 673.265625 " fill-opacity="1" fill-rule="nonzero"/><path fill="#4fad5b" d="M 443.917969 718.628906 C 447.976562 715.828125 452.175781 713.027344 456.515625 710.367188 L 453.296875 562.246094 C 468.695312 544.605469 467.578125 527.246094 463.9375 515.765625 C 460.015625 503.304688 452.316406 495.046875 452.035156 494.765625 L 450.214844 492.945312 L 448.394531 494.765625 C 448.117188 495.046875 440.417969 503.304688 436.496094 515.765625 C 432.855469 527.246094 431.738281 544.605469 447.136719 562.246094 Z M 443.917969 718.628906 " fill-opacity="1" fill-rule="nonzero"/><path fill="#4fad5b" d="M 351.796875 746.765625 C 354.316406 747.746094 356.695312 748.867188 359.214844 749.847656 L 357.535156 668.507812 C 367.476562 657.027344 366.777344 645.828125 364.394531 638.40625 C 361.875 630.285156 356.835938 624.96875 356.695312 624.828125 L 355.574219 623.566406 L 354.457031 624.828125 C 354.175781 625.105469 349.277344 630.285156 346.757812 638.40625 C 344.375 645.828125 343.675781 657.027344 353.617188 668.507812 Z M 351.796875 746.765625 " fill-opacity="1" fill-rule="nonzero"/><g fill="#0e2b0d" fill-opacity="1"><g transform="translate(881.565692, 832.836505)"><g><path d="M 39.1875 -304.84375 L 104.515625 -304.84375 L 104.515625 -185.078125 L 235.15625 -185.078125 L 235.15625 -304.84375 L 300.484375 -304.84375 L 300.484375 0 L 235.15625 0 L 235.15625 -124.109375 L 104.515625 -124.109375 L 104.515625 0 L 39.1875 0 Z M 39.1875 -304.84375 "/></g></g></g><g fill="#0e2b0d" fill-opacity="1"><g transform="translate(1199.471558, 832.836505)"><g><path d="M 82.734375 4.359375 C 72.867188 4.359375 63.941406 2.832031 55.953125 -0.21875 C 47.972656 -3.269531 41.148438 -7.550781 35.484375 -13.0625 C 29.828125 -18.582031 25.398438 -25.039062 22.203125 -32.4375 C 19.015625 -39.84375 17.421875 -47.898438 17.421875 -56.609375 C 17.421875 -74.023438 23.007812 -88.90625 34.1875 -101.25 C 45.363281 -113.59375 60.820312 -121.503906 80.5625 -124.984375 L 148.0625 -137.171875 C 146.90625 -144.722656 143.203125 -151.328125 136.953125 -156.984375 C 130.710938 -162.648438 122.078125 -165.484375 111.046875 -165.484375 C 103.492188 -165.484375 96.742188 -164.25 90.796875 -161.78125 C 84.847656 -159.3125 79.84375 -156.484375 75.78125 -153.296875 C 70.84375 -149.804688 66.628906 -145.882812 63.140625 -141.53125 L 28.3125 -176.375 C 34.40625 -183.914062 41.804688 -190.738281 50.515625 -196.84375 C 58.066406 -202.0625 67.210938 -206.847656 77.953125 -211.203125 C 88.691406 -215.566406 101.175781 -217.75 115.40625 -217.75 C 129.050781 -217.75 141.460938 -215.566406 152.640625 -211.203125 C 163.816406 -206.847656 173.46875 -200.820312 181.59375 -193.125 C 189.726562 -185.4375 195.972656 -176.4375 200.328125 -166.125 C 204.679688 -155.820312 206.859375 -144.722656 206.859375 -132.828125 L 206.859375 0 L 148.0625 0 L 148.0625 -26.125 L 145.890625 -26.125 C 141.242188 -20.320312 135.875 -15.242188 129.78125 -10.890625 C 124.550781 -6.828125 117.941406 -3.269531 109.953125 -0.21875 C 101.972656 2.832031 92.898438 4.359375 82.734375 4.359375 Z M 102.34375 -43.546875 C 115.40625 -43.546875 126.289062 -47.972656 135 -56.828125 C 143.707031 -65.679688 148.0625 -77.222656 148.0625 -91.453125 L 148.0625 -95.8125 L 100.15625 -87.09375 C 92.613281 -85.644531 86.734375 -83.03125 82.515625 -79.25 C 78.304688 -75.476562 76.203125 -70.835938 76.203125 -65.328125 C 76.203125 -58.648438 78.378906 -53.347656 82.734375 -49.421875 C 87.097656 -45.503906 93.632812 -43.546875 102.34375 -43.546875 Z M 102.34375 -43.546875 "/></g></g></g><g fill="#0e2b0d" fill-opacity="1"><g transform="translate(1412.860393, 832.836505)"><g><path d="M 28.3125 -213.390625 L 87.09375 -213.390625 L 87.09375 -182.90625 L 89.28125 -182.90625 C 93.914062 -189.289062 99.285156 -195.097656 105.390625 -200.328125 C 110.609375 -204.679688 117.132812 -208.671875 124.96875 -212.296875 C 132.8125 -215.929688 141.960938 -217.75 152.421875 -217.75 L 156.78125 -217.75 L 156.78125 -154.59375 C 155.320312 -154.882812 153.722656 -155.175781 151.984375 -155.46875 C 150.242188 -155.757812 148.140625 -156.050781 145.671875 -156.34375 C 143.203125 -156.632812 140.367188 -156.78125 137.171875 -156.78125 C 122.953125 -156.78125 111.050781 -151.695312 101.46875 -141.53125 C 91.882812 -131.375 87.09375 -117.582031 87.09375 -100.15625 L 87.09375 0 L 28.3125 0 Z M 28.3125 -213.390625 "/></g></g></g><g fill="#0e2b0d" fill-opacity="1"><g transform="translate(1556.571312, 832.836505)"><g><path d="M -2.171875 -213.390625 L 60.96875 -213.390625 L 110.171875 -69.671875 L 111.921875 -69.671875 L 161.125 -213.390625 L 224.28125 -213.390625 L 143.703125 0 L 78.390625 0 Z M -2.171875 -213.390625 "/></g></g></g><g fill="#0e2b0d" fill-opacity="1"><g transform="translate(1756.895552, 832.836505)"><g><path d="M 128.46875 4.359375 C 112.789062 4.359375 98.054688 1.457031 84.265625 -4.34375 C 70.472656 -10.15625 58.421875 -18.140625 48.109375 -28.296875 C 37.804688 -38.460938 29.75 -50.222656 23.9375 -63.578125 C 18.132812 -76.929688 15.234375 -91.300781 15.234375 -106.6875 C 15.234375 -121.789062 18.132812 -136.09375 23.9375 -149.59375 C 29.75 -163.09375 37.734375 -174.921875 47.890625 -185.078125 C 58.054688 -195.242188 69.816406 -203.226562 83.171875 -209.03125 C 96.523438 -214.84375 110.898438 -217.75 126.296875 -217.75 C 141.097656 -217.75 154.957031 -214.914062 167.875 -209.25 C 180.800781 -203.59375 192.050781 -195.972656 201.625 -186.390625 C 211.207031 -176.804688 218.828125 -165.554688 224.484375 -152.640625 C 230.148438 -139.722656 232.984375 -125.859375 232.984375 -111.046875 C 232.984375 -106.984375 232.835938 -103.425781 232.546875 -100.375 C 232.253906 -97.332031 231.960938 -94.648438 231.671875 -92.328125 C 231.390625 -89.421875 231.101562 -86.953125 230.8125 -84.921875 L 76.203125 -84.921875 C 79.398438 -75.046875 85.570312 -66.40625 94.71875 -59 C 103.863281 -51.601562 116.566406 -47.90625 132.828125 -47.90625 C 142.117188 -47.90625 150.242188 -49.066406 157.203125 -51.390625 C 164.171875 -53.710938 170.125 -56.46875 175.0625 -59.65625 C 180.582031 -63.144531 185.375 -67.210938 189.4375 -71.859375 L 219.921875 -30.484375 C 213.535156 -24.097656 205.695312 -18.289062 196.40625 -13.0625 C 188.5625 -8.707031 178.976562 -4.710938 167.65625 -1.078125 C 156.332031 2.546875 143.269531 4.359375 128.46875 4.359375 Z M 172.015625 -128.46875 C 168.816406 -138.34375 163.082031 -146.976562 154.8125 -154.375 C 146.539062 -161.78125 136.304688 -165.484375 124.109375 -165.484375 C 111.921875 -165.484375 101.6875 -161.78125 93.40625 -154.375 C 85.132812 -146.976562 79.398438 -138.34375 76.203125 -128.46875 Z M 172.015625 -128.46875 "/></g></g></g><g fill="#0e2b0d" fill-opacity="1"><g transform="translate(1983.349045, 832.836505)"><g><path d="M 97.984375 4.359375 C 83.179688 4.359375 70.117188 2.328125 58.796875 -1.734375 C 47.472656 -5.804688 37.890625 -10.304688 30.046875 -15.234375 C 20.753906 -20.753906 12.914062 -27.289062 6.53125 -34.84375 L 41.375 -71.859375 C 45.726562 -67.210938 50.804688 -63.144531 56.609375 -59.65625 C 61.546875 -56.46875 67.5 -53.710938 74.46875 -51.390625 C 81.4375 -49.066406 89.273438 -47.90625 97.984375 -47.90625 C 107.859375 -47.90625 114.679688 -49.351562 118.453125 -52.25 C 122.222656 -55.15625 124.109375 -58.785156 124.109375 -63.140625 C 124.109375 -67.203125 121.421875 -70.613281 116.046875 -73.375 C 110.679688 -76.132812 103.929688 -78.820312 95.796875 -81.4375 C 87.671875 -84.050781 78.960938 -87.097656 69.671875 -90.578125 C 60.378906 -94.066406 51.671875 -98.421875 43.546875 -103.640625 C 35.421875 -108.867188 28.671875 -115.398438 23.296875 -123.234375 C 17.921875 -131.078125 15.234375 -140.804688 15.234375 -152.421875 C 15.234375 -161.128906 17.117188 -169.398438 20.890625 -177.234375 C 24.671875 -185.078125 30.117188 -192.046875 37.234375 -198.140625 C 44.347656 -204.242188 53.203125 -209.035156 63.796875 -212.515625 C 74.390625 -216.003906 86.507812 -217.75 100.15625 -217.75 C 113.800781 -217.75 125.773438 -216.003906 136.078125 -212.515625 C 146.390625 -209.035156 155.03125 -205.257812 162 -201.1875 C 170.125 -196.257812 177.09375 -190.890625 182.90625 -185.078125 L 148.0625 -148.0625 C 144.582031 -151.257812 140.375 -154.164062 135.4375 -156.78125 C 131.375 -159.101562 126.363281 -161.132812 120.40625 -162.875 C 114.457031 -164.613281 107.707031 -165.484375 100.15625 -165.484375 C 92.613281 -165.484375 87.097656 -164.101562 83.609375 -161.34375 C 80.128906 -158.582031 78.390625 -155.609375 78.390625 -152.421875 C 78.390625 -148.359375 81.070312 -144.945312 86.4375 -142.1875 C 91.8125 -139.425781 98.5625 -136.738281 106.6875 -134.125 C 114.820312 -131.507812 123.535156 -128.460938 132.828125 -124.984375 C 142.117188 -121.503906 150.828125 -117.148438 158.953125 -111.921875 C 167.078125 -106.691406 173.828125 -100.15625 179.203125 -92.3125 C 184.578125 -84.476562 187.265625 -74.753906 187.265625 -63.140625 C 187.265625 -53.847656 185.375 -45.140625 181.59375 -37.015625 C 177.820312 -28.890625 172.160156 -21.773438 164.609375 -15.671875 C 157.066406 -9.578125 147.773438 -4.710938 136.734375 -1.078125 C 125.703125 2.546875 112.785156 4.359375 97.984375 4.359375 Z M 97.984375 4.359375 "/></g></g></g><g fill="#0e2b0d" fill-opacity="1"><g transform="translate(2159.721454, 832.836505)"><g><path d="M 117.578125 4.359375 C 95.804688 4.359375 78.382812 -2.390625 65.3125 -15.890625 C 52.25 -29.390625 45.71875 -48.769531 45.71875 -74.03125 L 45.71875 -154.59375 L 8.703125 -154.59375 L 8.703125 -209.03125 L 28.3125 -209.03125 C 44.28125 -209.03125 52.265625 -217.738281 52.265625 -235.15625 L 52.265625 -274.359375 L 104.515625 -274.359375 L 104.515625 -209.03125 L 152.421875 -209.03125 L 152.421875 -154.59375 L 104.515625 -154.59375 L 104.515625 -82.734375 C 104.515625 -72.867188 107.054688 -65.320312 112.140625 -60.09375 C 117.222656 -54.875 124.117188 -52.265625 132.828125 -52.265625 C 139.210938 -52.265625 144.875 -52.988281 149.8125 -54.4375 C 152.414062 -55.019531 154.738281 -55.742188 156.78125 -56.609375 L 156.78125 -2.171875 C 153.289062 -1.015625 149.515625 0.144531 145.453125 1.3125 C 141.960938 2.175781 137.820312 2.898438 133.03125 3.484375 C 128.25 4.066406 123.097656 4.359375 117.578125 4.359375 Z M 117.578125 4.359375 "/></g></g></g><g fill="#0e2b0d" fill-opacity="1"><g transform="translate(2312.142031, 832.836505)"><g><path d="M 104.515625 -158.953125 L 8.703125 -304.84375 L 84.921875 -304.84375 L 147.1875 -204.671875 L 148.9375 -204.671875 L 211.203125 -304.84375 L 287.421875 -304.84375 L 191.609375 -158.953125 L 296.125 0 L 219.921875 0 L 148.9375 -113.21875 L 147.1875 -113.21875 L 76.203125 0 L 0 0 Z M 104.515625 -158.953125 "/></g></g></g></svg>